{
    "asset" : {
        "generator" : "Khronos glTF Blender I/O v3.2.40",
        "version" : "2.0"
    },
    "scene" : 0,
    "scenes" : [
        {
            "name" : "Scene",
            "nodes" : [
                0,
                1,
                12
            ]
        }
    ],
    "nodes" : [
        {
            "name" : "\u00d7\u00fe\u00d7\u00fc",
            "scale" : [
                0.0010000000474974513,
                0.0010000000474974513,
                0.0010000000474974513
            ]
        },
        {
            "name" : "\u00a1\u00a1\u00d7\u00fd\u00d7\u00fb",
            "scale" : [
                0.0010000000474974513,
                0.0010000000474974513,
                0.0010000000474974513
            ]
        },
        {
            "mesh" : 0,
            "name" : "Cylinder35350",
            "rotation" : [
                0.7071054577827454,
                -0.0011905640130862594,
                0.0011905590072274208,
                0.7071061730384827
            ],
            "translation" : [
                -21.085948944091797,
                -175.46435546875,
                -221.72657775878906
            ]
        },
        {
            "mesh" : 1,
            "name" : "Cylinder35351",
            "rotation" : [
                0.7071054577827454,
                -0.0011905640130862594,
                0.0011905590072274208,
                0.7071061730384827
            ],
            "translation" : [
                22.4218807220459,
                175.46388244628906,
                -221.72268676757812
            ]
        },
        {
            "children" : [
                2,
                3
            ],
            "name" : "Group2112600627",
            "translation" : [
                -221.63671875,
                93.91404724121094,
                -3.5742099285125732
            ]
        },
        {
            "mesh" : 2,
            "name" : "OilTank1576",
            "rotation" : [
                0.7069684863090515,
                -0.01399485394358635,
                0.013994856737554073,
                0.7069680690765381
            ],
            "translation" : [
                103.51718139648438,
                -41.394527435302734,
                -68.7728042602539
            ]
        },
        {
            "mesh" : 3,
            "name" : "Rectangle4716529",
            "rotation" : [
                -0.01979169435799122,
                0,
                0.9998041391372681,
                5.356154986202455e-08
            ],
            "scale" : [
                -0.9999997615814209,
                -0.9999999403953552,
                -0.9999997615814209
            ],
            "translation" : [
                39.390625,
                -153.26023864746094,
                1.832029938697815
            ]
        },
        {
            "mesh" : 4,
            "name" : "Sphere19332",
            "rotation" : [
                0.6195976734161377,
                0.1585368812084198,
                -0.18125398457050323,
                0.7470688223838806
            ],
            "translation" : [
                0.015630722045898438,
                -0.00024890899658203125,
                46.6953125
            ]
        },
        {
            "mesh" : 5,
            "name" : "Sphere19333",
            "rotation" : [
                -0.15853704512119293,
                0.6195976138114929,
                0.7470688223838806,
                0.18125416338443756
            ],
            "scale" : [
                -1.0000004768371582,
                -1.000000238418579,
                -1.0000004768371582
            ],
            "translation" : [
                0.007829666137695312,
                0.0002498626708984375,
                -46.69532012939453
            ]
        },
        {
            "children" : [
                7,
                8
            ],
            "name" : "\u773c\u775b002",
            "rotation" : [
                -0.9967427253723145,
                -0.001066311844624579,
                0.05840476229786873,
                0.055603016167879105
            ],
            "scale" : [
                -1.000000238418579,
                -1.000000238418579,
                -0.9999985098838806
            ],
            "translation" : [
                -267.01953125,
                274.50531005859375,
                4.695314407348633
            ]
        },
        {
            "mesh" : 6,
            "name" : "\u8df7\u8df7\u677f\u5e95\u5ea7006",
            "rotation" : [
                0,
                -1,
                0,
                6.668560672551394e-07
            ],
            "translation" : [
                39.980464935302734,
                -371.7040710449219,
                0
            ]
        },
        {
            "mesh" : 7,
            "name" : "\u9a6c002",
            "rotation" : [
                -0.5071210861206055,
                0.4927760362625122,
                0.49277549982070923,
                0.5071215629577637
            ],
            "scale" : [
                -1.0000001192092896,
                -1.1357747316360474,
                -0.9999998807907104
            ],
            "translation" : [
                -192.49160766601562,
                28.867366790771484,
                -4.977860927581787
            ]
        },
        {
            "children" : [
                4,
                5,
                6,
                9,
                10,
                11
            ],
            "name" : "Group2112600628",
            "rotation" : [
                0.04680812731385231,
                -0.8341860175132751,
                -0.02380768023431301,
                0.5489771366119385
            ],
            "scale" : [
                0.0010000001639127731,
                0.0010000000474974513,
                0.0010000000474974513
            ]
        }
    ],
    "materials" : [
        {
            "doubleSided" : true,
            "name" : "Material #171",
            "pbrMetallicRoughness" : {
                "baseColorFactor" : [
                    1,
                    0.545098066329956,
                    0,
                    1
                ],
                "metallicFactor" : 0,
                "roughnessFactor" : 0.5527864098548889
            }
        },
        {
            "doubleSided" : true,
            "name" : "CRN.10 - Default",
            "pbrMetallicRoughness" : {
                "baseColorFactor" : [
                    0,
                    0.38431376218795776,
                    0.8196079134941101,
                    1
                ],
                "metallicFactor" : 0,
                "roughnessFactor" : 0.5527864098548889
            }
        },
        {
            "doubleSided" : true,
            "name" : "Material #2079611649",
            "pbrMetallicRoughness" : {
                "baseColorFactor" : [
                    0.058823537081480026,
                    0.0313725508749485,
                    0.050980400294065475,
                    1
                ],
                "metallicFactor" : 0,
                "roughnessFactor" : 0.5527864098548889
            }
        },
        {
            "doubleSided" : true,
            "name" : "CRN.21 - Default",
            "pbrMetallicRoughness" : {
                "baseColorFactor" : [
                    0.5882353186607361,
                    0.5882353186607361,
                    0.5882353186607361,
                    1
                ],
                "metallicFactor" : 0,
                "roughnessFactor" : 0.5527864098548889
            }
        },
        {
            "doubleSided" : true,
            "name" : "Special Oil Rubbed Venetian Bronze",
            "pbrMetallicRoughness" : {
                "baseColorFactor" : [
                    0,
                    0,
                    0,
                    1
                ],
                "metallicFactor" : 0,
                "roughnessFactor" : 0.5527864098548889
            }
        },
        {
            "doubleSided" : true,
            "name" : "\u5e73\u53f0\u989c\u8272",
            "pbrMetallicRoughness" : {
                "baseColorFactor" : [
                    0.011764707043766975,
                    0.011764707043766975,
                    0.011764707043766975,
                    1
                ],
                "metallicFactor" : 0,
                "roughnessFactor" : 0.5527864098548889
            }
        }
    ],
    "meshes" : [
        {
            "name" : "Mesh",
            "primitives" : [
                {
                    "attributes" : {
                        "POSITION" : 0,
                        "NORMAL" : 1,
                        "TEXCOORD_0" : 2
                    },
                    "indices" : 3,
                    "material" : 0
                }
            ]
        },
        {
            "name" : "Mesh.001",
            "primitives" : [
                {
                    "attributes" : {
                        "POSITION" : 4,
                        "NORMAL" : 5,
                        "TEXCOORD_0" : 6
                    },
                    "indices" : 3,
                    "material" : 0
                }
            ]
        },
        {
            "name" : "Mesh.002",
            "primitives" : [
                {
                    "attributes" : {
                        "POSITION" : 7,
                        "NORMAL" : 8,
                        "TEXCOORD_0" : 9
                    },
                    "indices" : 10,
                    "material" : 1
                }
            ]
        },
        {
            "name" : "Mesh.003",
            "primitives" : [
                {
                    "attributes" : {
                        "POSITION" : 11,
                        "NORMAL" : 12
                    },
                    "indices" : 13,
                    "material" : 2
                }
            ]
        },
        {
            "name" : "Mesh.004",
            "primitives" : [
                {
                    "attributes" : {
                        "POSITION" : 14,
                        "NORMAL" : 15,
                        "TEXCOORD_0" : 16
                    },
                    "indices" : 17,
                    "material" : 3
                },
                {
                    "attributes" : {
                        "POSITION" : 18,
                        "NORMAL" : 19,
                        "TEXCOORD_0" : 20
                    },
                    "indices" : 21,
                    "material" : 4
                }
            ]
        },
        {
            "name" : "Mesh.005",
            "primitives" : [
                {
                    "attributes" : {
                        "POSITION" : 22,
                        "NORMAL" : 23,
                        "TEXCOORD_0" : 24
                    },
                    "indices" : 17,
                    "material" : 3
                },
                {
                    "attributes" : {
                        "POSITION" : 25,
                        "NORMAL" : 26,
                        "TEXCOORD_0" : 27
                    },
                    "indices" : 21,
                    "material" : 4
                }
            ]
        },
        {
            "name" : "Mesh.006",
            "primitives" : [
                {
                    "attributes" : {
                        "POSITION" : 28,
                        "NORMAL" : 29
                    },
                    "indices" : 30,
                    "material" : 5
                }
            ]
        },
        {
            "name" : "Mesh.007",
            "primitives" : [
                {
                    "attributes" : {
                        "POSITION" : 31,
                        "NORMAL" : 32,
                        "TEXCOORD_0" : 33,
                        "COLOR_0" : 34
                    },
                    "indices" : 35,
                    "material" : 1
                }
            ]
        }
    ],
    "accessors" : [
        {
            "bufferView" : 0,
            "componentType" : 5126,
            "count" : 2022,
            "max" : [
                16.214868545532227,
                379.63714599609375,
                15.955327033996582
            ],
            "min" : [
                -16.058225631713867,
                63.8106689453125,
                -15.955333709716797
            ],
            "type" : "VEC3"
        },
        {
            "bufferView" : 1,
            "componentType" : 5126,
            "count" : 2022,
            "type" : "VEC3"
        },
        {
            "bufferView" : 2,
            "componentType" : 5126,
            "count" : 2022,
            "type" : "VEC2"
        },
        {
            "bufferView" : 3,
            "componentType" : 5123,
            "count" : 3516,
            "type" : "SCALAR"
        },
        {
            "bufferView" : 4,
            "componentType" : 5126,
            "count" : 2022,
            "max" : [
                16.214868545532227,
                379.63714599609375,
                15.955327033996582
            ],
            "min" : [
                -16.058225631713867,
                63.8106689453125,
                -15.955333709716797
            ],
            "type" : "VEC3"
        },
        {
            "bufferView" : 5,
            "componentType" : 5126,
            "count" : 2022,
            "type" : "VEC3"
        },
        {
            "bufferView" : 6,
            "componentType" : 5126,
            "count" : 2022,
            "type" : "VEC2"
        },
        {
            "bufferView" : 7,
            "componentType" : 5126,
            "count" : 300,
            "max" : [
                45.02498245239258,
                149.02008056640625,
                12.595564842224121
            ],
            "min" : [
                -166.79685974121094,
                -1.0936989784240723,
                -12.595558166503906
            ],
            "type" : "VEC3"
        },
        {
            "bufferView" : 8,
            "componentType" : 5126,
            "count" : 300,
            "type" : "VEC3"
        },
        {
            "bufferView" : 9,
            "componentType" : 5126,
            "count" : 300,
            "type" : "VEC2"
        },
        {
            "bufferView" : 10,
            "componentType" : 5123,
            "count" : 1296,
            "type" : "SCALAR"
        },
        {
            "bufferView" : 11,
            "componentType" : 5126,
            "count" : 48,
            "max" : [
                114.94254302978516,
                130.2652130126953,
                35.09077453613281
            ],
            "min" : [
                -115.05746459960938,
                90.28660583496094,
                -34.97917938232422
            ],
            "type" : "VEC3"
        },
        {
            "bufferView" : 12,
            "componentType" : 5126,
            "count" : 48,
            "type" : "VEC3"
        },
        {
            "bufferView" : 13,
            "componentType" : 5123,
            "count" : 84,
            "type" : "SCALAR"
        },
        {
            "bufferView" : 14,
            "componentType" : 5126,
            "count" : 77,
            "max" : [
                19.86323356628418,
                17.20206642150879,
                19.86323356628418
            ],
            "min" : [
                -19.86323356628418,
                -19.86323356628418,
                -19.86323356628418
            ],
            "type" : "VEC3"
        },
        {
            "bufferView" : 15,
            "componentType" : 5126,
            "count" : 77,
            "type" : "VEC3"
        },
        {
            "bufferView" : 16,
            "componentType" : 5126,
            "count" : 77,
            "type" : "VEC2"
        },
        {
            "bufferView" : 17,
            "componentType" : 5123,
            "count" : 324,
            "type" : "SCALAR"
        },
        {
            "bufferView" : 18,
            "componentType" : 5126,
            "count" : 48,
            "max" : [
                9.93161678314209,
                20.749631881713867,
                9.93161678314209
            ],
            "min" : [
                -9.93161678314209,
                17.20206642150879,
                -9.93161678314209
            ],
            "type" : "VEC3"
        },
        {
            "bufferView" : 19,
            "componentType" : 5126,
            "count" : 48,
            "type" : "VEC3"
        },
        {
            "bufferView" : 20,
            "componentType" : 5126,
            "count" : 48,
            "type" : "VEC2"
        },
        {
            "bufferView" : 21,
            "componentType" : 5123,
            "count" : 72,
            "type" : "SCALAR"
        },
        {
            "bufferView" : 22,
            "componentType" : 5126,
            "count" : 77,
            "max" : [
                19.86323356628418,
                17.20206642150879,
                19.86323356628418
            ],
            "min" : [
                -19.86323356628418,
                -19.86323356628418,
                -19.86323356628418
            ],
            "type" : "VEC3"
        },
        {
            "bufferView" : 23,
            "componentType" : 5126,
            "count" : 77,
            "type" : "VEC3"
        },
        {
            "bufferView" : 24,
            "componentType" : 5126,
            "count" : 77,
            "type" : "VEC2"
        },
        {
            "bufferView" : 25,
            "componentType" : 5126,
            "count" : 48,
            "max" : [
                9.93161678314209,
                20.749631881713867,
                9.93161678314209
            ],
            "min" : [
                -9.93161678314209,
                17.20206642150879,
                -9.93161678314209
            ],
            "type" : "VEC3"
        },
        {
            "bufferView" : 26,
            "componentType" : 5126,
            "count" : 48,
            "type" : "VEC3"
        },
        {
            "bufferView" : 27,
            "componentType" : 5126,
            "count" : 48,
            "type" : "VEC2"
        },
        {
            "bufferView" : 28,
            "componentType" : 5126,
            "count" : 41572,
            "max" : [
                162.5,
                347.94232177734375,
                162.5
            ],
            "min" : [
                -162.5,
                2.2080161571502686,
                -162.5
            ],
            "type" : "VEC3"
        },
        {
            "bufferView" : 29,
            "componentType" : 5126,
            "count" : 41572,
            "type" : "VEC3"
        },
        {
            "bufferView" : 30,
            "componentType" : 5123,
            "count" : 243633,
            "type" : "SCALAR"
        },
        {
            "bufferView" : 31,
            "componentType" : 5126,
            "count" : 13148,
            "max" : [
                93.08233642578125,
                475.3106689453125,
                150.34249877929688
            ],
            "min" : [
                -93.07807159423828,
                -136.08641052246094,
                -340.6275939941406
            ],
            "type" : "VEC3"
        },
        {
            "bufferView" : 32,
            "componentType" : 5126,
            "count" : 13148,
            "type" : "VEC3"
        },
        {
            "bufferView" : 33,
            "componentType" : 5126,
            "count" : 13148,
            "type" : "VEC2"
        },
        {
            "bufferView" : 34,
            "componentType" : 5123,
            "count" : 13148,
            "normalized" : true,
            "type" : "VEC4"
        },
        {
            "bufferView" : 35,
            "componentType" : 5123,
            "count" : 75552,
            "type" : "SCALAR"
        }
    ],
    "bufferViews" : [
        {
            "buffer" : 0,
            "byteLength" : 24264,
            "byteOffset" : 0
        },
        {
            "buffer" : 0,
            "byteLength" : 24264,
            "byteOffset" : 24264
        },
        {
            "buffer" : 0,
            "byteLength" : 16176,
            "byteOffset" : 48528
        },
        {
            "buffer" : 0,
            "byteLength" : 7032,
            "byteOffset" : 64704
        },
        {
            "buffer" : 0,
            "byteLength" : 24264,
            "byteOffset" : 71736
        },
        {
            "buffer" : 0,
            "byteLength" : 24264,
            "byteOffset" : 96000
        },
        {
            "buffer" : 0,
            "byteLength" : 16176,
            "byteOffset" : 120264
        },
        {
            "buffer" : 0,
            "byteLength" : 3600,
            "byteOffset" : 136440
        },
        {
            "buffer" : 0,
            "byteLength" : 3600,
            "byteOffset" : 140040
        },
        {
            "buffer" : 0,
            "byteLength" : 2400,
            "byteOffset" : 143640
        },
        {
            "buffer" : 0,
            "byteLength" : 2592,
            "byteOffset" : 146040
        },
        {
            "buffer" : 0,
            "byteLength" : 576,
            "byteOffset" : 148632
        },
        {
            "buffer" : 0,
            "byteLength" : 576,
            "byteOffset" : 149208
        },
        {
            "buffer" : 0,
            "byteLength" : 168,
            "byteOffset" : 149784
        },
        {
            "buffer" : 0,
            "byteLength" : 924,
            "byteOffset" : 149952
        },
        {
            "buffer" : 0,
            "byteLength" : 924,
            "byteOffset" : 150876
        },
        {
            "buffer" : 0,
            "byteLength" : 616,
            "byteOffset" : 151800
        },
        {
            "buffer" : 0,
            "byteLength" : 648,
            "byteOffset" : 152416
        },
        {
            "buffer" : 0,
            "byteLength" : 576,
            "byteOffset" : 153064
        },
        {
            "buffer" : 0,
            "byteLength" : 576,
            "byteOffset" : 153640
        },
        {
            "buffer" : 0,
            "byteLength" : 384,
            "byteOffset" : 154216
        },
        {
            "buffer" : 0,
            "byteLength" : 144,
            "byteOffset" : 154600
        },
        {
            "buffer" : 0,
            "byteLength" : 924,
            "byteOffset" : 154744
        },
        {
            "buffer" : 0,
            "byteLength" : 924,
            "byteOffset" : 155668
        },
        {
            "buffer" : 0,
            "byteLength" : 616,
            "byteOffset" : 156592
        },
        {
            "buffer" : 0,
            "byteLength" : 576,
            "byteOffset" : 157208
        },
        {
            "buffer" : 0,
            "byteLength" : 576,
            "byteOffset" : 157784
        },
        {
            "buffer" : 0,
            "byteLength" : 384,
            "byteOffset" : 158360
        },
        {
            "buffer" : 0,
            "byteLength" : 498864,
            "byteOffset" : 158744
        },
        {
            "buffer" : 0,
            "byteLength" : 498864,
            "byteOffset" : 657608
        },
        {
            "buffer" : 0,
            "byteLength" : 487266,
            "byteOffset" : 1156472
        },
        {
            "buffer" : 0,
            "byteLength" : 157776,
            "byteOffset" : 1643740
        },
        {
            "buffer" : 0,
            "byteLength" : 157776,
            "byteOffset" : 1801516
        },
        {
            "buffer" : 0,
            "byteLength" : 105184,
            "byteOffset" : 1959292
        },
        {
            "buffer" : 0,
            "byteLength" : 105184,
            "byteOffset" : 2064476
        },
        {
            "buffer" : 0,
            "byteLength" : 151104,
            "byteOffset" : 2169660
        }
    ],
    "buffers" : [
        {
            "byteLength" : 2320764,
            "uri" : "data:application/octet-stream;base64,"
        }
    ]
}
